<?xml version="1.0" encoding="UTF-8" standalone="no"?>
<svg xmlns="http://www.w3.org/2000/svg" width="768" height="1024" viewBox="0 0 768 1024">
  <rect x="0" y="0" width="768" height="1024" fill="#000000"/>
  <path d="M 501 542 L 495 541 L 486 547 L 485 555 L 487 559 L 499 561 L 505 557 L 506 549 Z" fill="#ffffff" fill-rule="evenodd"/>
  <path d="M 449 255 L 439 253 L 436 248 L 428 251 L 423 251 L 421 248 L 409 249 L 405 254 L 396 256 L 393 266 L 387 273 L 383 274 L 351 332 L 313 389 L 289 431 L 289 435 L 284 438 L 274 458 L 268 463 L 259 486 L 253 491 L 251 497 L 247 499 L 212 570 L 181 623 L 161 667 L 165 666 L 169 659 L 176 654 L 177 650 L 187 652 L 183 664 L 185 666 L 192 657 L 192 652 L 196 651 L 201 645 L 213 646 L 220 641 L 221 637 L 229 636 L 246 620 L 259 614 L 270 605 L 274 605 L 285 597 L 300 592 L 304 587 L 308 587 L 351 559 L 356 559 L 359 562 L 360 554 L 375 544 L 380 543 L 385 544 L 385 566 L 388 582 L 397 605 L 403 609 L 410 621 L 429 637 L 463 654 L 483 658 L 501 658 L 502 656 L 519 656 L 524 653 L 531 653 L 565 636 L 578 625 L 591 610 L 591 607 L 595 606 L 597 601 L 592 600 L 592 595 L 596 593 L 600 567 L 602 565 L 602 551 L 594 513 L 591 511 L 589 504 L 578 487 L 566 475 L 546 462 L 526 454 L 510 451 L 477 451 L 442 459 L 360 493 L 303 524 L 298 523 L 300 517 L 318 507 L 320 503 L 334 498 L 349 484 L 383 426 L 389 409 L 410 370 L 416 371 L 427 408 L 431 413 L 445 449 L 490 443 L 471 379 L 472 373 L 479 373 L 479 382 L 481 382 L 483 375 L 480 372 L 465 305 L 462 304 Z" fill="#ffffff" fill-rule="evenodd"/>
  <path d="M 587 542 L 588 567 L 580 595 L 569 613 L 547 632 L 540 634 L 531 641 L 505 645 L 503 643 L 504 633 L 521 630 L 530 626 L 531 623 L 513 625 L 512 620 L 501 620 L 502 615 L 507 615 L 506 608 L 509 606 L 509 604 L 499 601 L 499 594 L 503 593 L 503 586 L 513 584 L 521 579 L 530 565 L 536 565 L 537 570 L 539 570 L 543 563 L 547 563 L 548 567 L 552 568 L 552 573 L 572 571 L 573 575 L 575 575 L 580 559 L 580 545 L 582 542 Z" fill="#ffffff" fill-rule="evenodd"/>
  <path d="M 575 510 L 575 515 L 532 556 L 528 556 L 527 550 L 523 549 L 518 557 L 517 567 L 507 575 L 502 577 L 488 575 L 482 572 L 472 560 L 474 541 L 481 533 L 488 529 L 499 528 L 517 538 L 564 505 L 570 505 Z" fill="#ffffff" fill-rule="evenodd"/>
  <path d="M 521 463 L 524 467 L 530 468 L 529 473 L 524 473 L 523 471 L 521 473 L 526 473 L 535 480 L 535 484 L 531 485 L 531 492 L 523 493 L 523 499 L 519 500 L 518 508 L 507 508 L 509 516 L 515 519 L 514 524 L 503 520 L 489 520 L 477 524 L 468 532 L 463 540 L 462 547 L 463 566 L 466 569 L 465 574 L 460 574 L 457 567 L 455 567 L 454 574 L 441 573 L 435 563 L 432 563 L 431 568 L 425 568 L 421 564 L 417 566 L 416 570 L 412 570 L 420 599 L 433 616 L 451 630 L 450 635 L 444 635 L 414 607 L 402 583 L 398 561 L 398 546 L 405 510 L 411 504 L 411 501 L 414 500 L 414 495 L 423 490 L 427 480 L 432 480 L 453 466 L 479 459 L 508 459 Z" fill="#ffffff" fill-rule="evenodd"/>
  <path d="M 409 335 L 417 335 L 423 340 L 423 344 L 417 352 L 410 352 L 404 348 L 405 340 Z" fill="#ffffff" fill-rule="evenodd"/>
  <path d="M 437 266 L 441 269 L 441 278 L 425 324 L 410 325 L 409 313 L 417 269 L 420 267 Z" fill="#ffffff" fill-rule="evenodd"/>
</svg>
